<svg xmlns="http://www.w3.org/2000/svg" viewBox="0 0 512 512">
  <defs>
    <linearGradient id="navbarGrad" x1="0%" y1="100%" x2="100%" y2="0%">
      <stop offset="0%" style="stop-color:#2563eb;stop-opacity:1" /> <stop offset="100%" style="stop-color:#22d3ee;stop-opacity:1" /> </linearGradient>
    
    <filter id="shadow" x="-20%" y="-20%" width="140%" height="140%">
      <feGaussianBlur stdDeviation="15" result="blur"/>
      <feComponentTransfer in="blur">
        <feFuncA type="linear" slope="0.5"/>
      </feComponentTransfer>
      <feMerge>
        <feMergeNode/>
        <feMergeNode in="SourceGraphic"/>
      </feMerge>
    </filter>
  </defs>

  <rect 
    x="32" y="32" width="448" height="448" rx="120" ry="120"
    fill="url(#navbarGrad)"
    filter="url(#shadow)"
  />

  <path 
    d="M154.6 144C140 144 128 156 128 170.6V208.8C128 225.1 114.9 238.4 98.6 238.4C82.3 238.4 69.2 225.1 69.2 208.8V170.6C69.2 156 57.2 144 42.6 144H32V368H42.6C57.2 368 69.2 356 69.2 341.4V303.2C69.2 286.9 82.3 273.6 98.6 273.6C114.9 273.6 128 286.9 128 303.2V341.4C128 356 140 368 154.6 368H458.6C473.2 368 485.2 356 485.2 341.4V170.6C485.2 156 473.2 144 458.6 144H154.6ZM154.6 112H458.6C490.9 112 517.2 138.3 517.2 170.6V341.4C517.2 373.7 490.9 400 458.6 400H154.6C122.3 400 96 373.7 96 341.4V337.6C96 336.2 94.8 335 93.4 335C69.9 335 50.8 315.9 50.8 292.4C50.8 268.9 69.9 249.8 93.4 249.8C94.8 249.8 96 248.6 96 247.2V170.6C96 138.3 122.3 112 154.6 112Z"
    fill="none" 
    stroke="white" 
    stroke-width="32" 
    stroke-linecap="round" 
    stroke-linejoin="round"
    transform="scale(0.9) translate(28, 28)"
  />
  
  <path 
    d="M340 160V352" 
    stroke="white" 
    stroke-width="32" 
    stroke-linecap="round" 
    stroke-dasharray="0 60"
  />
</svg>